<svg width="31" height="34" viewBox="0 0 31 34" fill="none" xmlns="http://www.w3.org/2000/svg">
<path d="M9.04171 20.8316H12.9167C13.2593 20.8316 13.5878 20.6872 13.8301 20.4302C14.0723 20.1732 14.2084 19.8246 14.2084 19.4611C14.2084 19.0976 14.0723 18.749 13.8301 18.492C13.5878 18.2349 13.2593 18.0905 12.9167 18.0905H9.04171C8.69914 18.0905 8.3706 18.2349 8.12836 18.492C7.88613 18.749 7.75004 19.0976 7.75004 19.4611C7.75004 19.8246 7.88613 20.1732 8.12836 20.4302C8.3706 20.6872 8.69914 20.8316 9.04171 20.8316ZM24.5417 7.12631H6.45837C5.43066 7.12631 4.44504 7.5595 3.71834 8.33057C2.99163 9.10164 2.58337 10.1474 2.58337 11.2379V23.5726C2.58337 24.6631 2.99163 25.7089 3.71834 26.48C4.44504 27.2511 5.43066 27.6842 6.45837 27.6842H24.5417C25.5694 27.6842 26.555 27.2511 27.2817 26.48C28.0085 25.7089 28.4167 24.6631 28.4167 23.5726V11.2379C28.4167 10.1474 28.0085 9.10164 27.2817 8.33057C26.555 7.5595 25.5694 7.12631 24.5417 7.12631ZM25.8334 23.5726C25.8334 23.9361 25.6973 24.2847 25.4551 24.5418C25.2128 24.7988 24.8843 24.9432 24.5417 24.9432H6.45837C6.1158 24.9432 5.78726 24.7988 5.54503 24.5418C5.30279 24.2847 5.16671 23.9361 5.16671 23.5726V15.3495H25.8334V23.5726ZM25.8334 12.6084H5.16671V11.2379C5.16671 10.8744 5.30279 10.5258 5.54503 10.2688C5.78726 10.0118 6.1158 9.86737 6.45837 9.86737H24.5417C24.8843 9.86737 25.2128 10.0118 25.4551 10.2688C25.6973 10.5258 25.8334 10.8744 25.8334 11.2379V12.6084Z" fill="#323232"/>
</svg>
