<svg width="24" height="25" viewBox="0 0 24 25" fill="none" xmlns="http://www.w3.org/2000/svg">
<g clip-path="url(#clip0_418_15)">
<path d="M4 4.58594H20C20.5304 4.58594 21.0391 4.79254 21.4142 5.16028C21.7893 5.52803 22 6.0268 22 6.54688V18.3125C22 18.8326 21.7893 19.3313 21.4142 19.6991C21.0391 20.0668 20.5304 20.2734 20 20.2734H4C3.46957 20.2734 2.96086 20.0668 2.58579 19.6991C2.21071 19.3313 2 18.8326 2 18.3125V6.54688C2 6.0268 2.21071 5.52803 2.58579 5.16028C2.96086 4.79254 3.46957 4.58594 4 4.58594V4.58594ZM4 6.54688V18.3125H20V6.54688H4ZM12 10.959C12.3978 10.959 12.7794 11.1139 13.0607 11.3897C13.342 11.6656 13.5 12.0396 13.5 12.4297C13.5 12.8197 13.342 13.1938 13.0607 13.4696C12.7794 13.7454 12.3978 13.9004 12 13.9004C11.6022 13.9004 11.2206 13.7454 10.9393 13.4696C10.658 13.1938 10.5 12.8197 10.5 12.4297C10.5 12.0396 10.658 11.6656 10.9393 11.3897C11.2206 11.1139 11.6022 10.959 12 10.959Z" fill="#820AD1"/>
<path d="M17.9899 14.8711H17.4899V15.3711V18.6373L16.5723 17.7376L16.2222 17.3944L15.8722 17.7376L14.65 18.9359L14.2858 19.293L14.65 19.65L18.65 23.5719L19 23.9151L19.35 23.5719L23.35 19.65L23.7142 19.293L23.35 18.9359L22.1278 17.7376L21.7778 17.3944L21.4277 17.7376L20.5101 18.6373V15.3711V14.8711H20.0101H17.9899Z" fill="#820AD1" stroke="#E8E8F0"/>
</g>
<defs>
<clipPath id="clip0_418_15">
<rect width="24" height="23.5312" fill="white" transform="translate(0 0.664062)"/>
</clipPath>
</defs>
</svg>
